<svg style="position: absolute; width: 0; height: 0;" width="0" height="0" version="1.1" xmlns="http://www.w3.org/2000/svg" xmlns:xlink="http://www.w3.org/1999/xlink"><defs><symbol id="weibo" viewBox="0 -212 1024 1024"><path d="M447 371 q-5 4 -6 10 q-1 6 2 11 q3 4 8 5 q6 0 11 -3 q6 -4 7 -10 q2 -6 -1 -12 q-3 -4 -8 -5 q-6 -1 -13 4 ZM395 385 q-17 2 -26 13 q-10 11 -11 25 q1 13 11 21 q11 8 27 6 q16 -2 27 -12 q10 -11 11 -24 q0 -14 -11 -22 q-11 -8 -28 -7 ZM520 -204 q-215 5 -357 148 q-142 141 -147 356 q5 215 147 356 q142 143 357 148 q214 -5 356.5 -147 q142.5 -142 147.5 -357 q-5 -215 -147.5 -357 q-142.5 -142 -356.5 -147 ZM746 418 q-38 73 -129 107 q-90 35 -179 29 q-85 -5 -163 -42 q-78 -37 -94 -130 q-2 -2 3.5 -39 q5.5 -37 45.5 -95 q2 -6 53 -61 q50 -54 123 -85 q68 -21 88 3 q20 24 18 51 q-6 22 -5 31 q1 10 26 2 q4 -4 51 -17 q47 -13 80 12 q21 24 14 48 q-7 24 -9 26 q-2 0 -3 8 q-2 6 17 10 q26 4 59 36.5 q33 32.5 4 105.5 ZM655 149 q-8 0 -13 -5 q-5 -5 -5 -13 q0 -7 5 -13 q5 -5 13 -5 q7 -5 55 5 q48 10 45 96 l0 2 q-1 7 -6 11 q-5 4 -12 4 q-8 0 -13 -5 q-5 -5 -5 -13 q4 -6 -1 -38 q-5 -33 -63 -26 ZM848 237 q-3 16 -10 22 q-7 6 -16 6 q-12 0 -19 -4 q-8 -4 -8 -15 q0 -10 2.5 -18 q2.5 -8 2.5 -8 q3 -4 5 -27.5 q2 -23.5 -13 -60.5 q-34 -50 -77.5 -60 q-43.5 -10 -53.5 -5 q-8 3 -16 4 l-8 2 q-12 -1 -20 -8 q-7 -8 -7 -20 q0 -9 5 -16 q6 -7 14 -10 q0 0 0.5 -0.5 q0.5 -0.5 0.5 -0.5 q1 0 1 -1 q1 -1 1 -1 q10 -2 35 -6 q26 -3 57 3 q58 12 104.5 70.5 q46.5 58.5 19.5 153.5 ZM447 254 q-86 5 -143 43 q-56 38 -58 96 q2 57 58.5 92 q56.5 35 142.5 33 q85 -6 142 -50 q56 -42 59 -99 q-3 -56 -59 -88 q-57 -30 -142 -27 ZM522 441 q-27 33 -71.5 44 q-44.5 11 -95.5 -15 q-21 -13 -26 -31 q-4 -17 -3 -19 q-4 -6 7 -53 q12 -48 91 -64 q83 -4 104 47 q21 52 -6 91 Z"></path></symbol><symbol id="weibo2" viewBox="0 -212 1024 1024"><path d="M890 312.27 q-32 -7 -29 -19 q2 -13 6 -14 q4 -3 15 -43 q12 -39 -25 -82 q-58 -43 -141 -20 q-83 21 -91 28 q-44 14 -45 -3 q-1 -16 8 -51 q4 -48 -30.5 -89 q-34.5 -41 -156.5 -5 q-129 52 -218 145 q-89 93 -93 104 q-70 99 -80 162 q-10 63 -6 66 q27 161 166 223 q138 63 288 70 q156 11 316 -48 q160 -58 229 -184 q51 -123 -8.5 -178.5 q-59.5 -55.5 -104.5 -61.5 ZM526 717.27 q-164 5 -274 -61 q-109 -65 -113 -171 q4 -106 113.5 -177.5 q109.5 -71.5 273.5 -80.5 q165 -6 274 52 q110 57 114 161 q-4 107 -114 187 q-109 79 -274 90 ZM444 298.27 q-154 30 -176 119 q-23 88 -15 99 q-2 4 6 36 q9 31 51 58 q98 47 184 27 q86 -20 138 -83 q52 -72 11.5 -168 q-40.5 -96 -199.5 -88 ZM397 571.27 q-31 3 -51 -11 q-21 -14 -22 -39 q1 -26 20 -46 q19 -21 50 -24 q35 -3 55 13 q21 15 21 41 q-1 24 -21.5 43 q-20.5 19 -51.5 23 ZM544 467.27 q-11 7 -21 6 q-10 -1 -16 -9 q-6 -10 -4 -21 q2 -12 12 -20 q13 -7 24 -6 q10 1 16 10 q6 9 2 20 q-2 11 -13 20 ZM939 241.27 q13 0 23 -9 q9 -8 12 -19 l0 -5 q5 -161 -88 -179 q-91 -19 -106 -9 q-15 0 -24.5 9.5 q-9.5 9.5 -10.5 24.5 q1 14 10 24 q10 10 25 10 q112 -15 121 47 q9 61 3 72 q0 14 10 23 q10 11 25 11 ZM869 -140.73 q-59 -12 -109 -8 q-49 4 -67 10 l-5 1 l-1 1 q-17 5 -27 18 q-11 13 -11 30 q1 21 15 35 q15 14 37 14 q1 0 16 -2.5 q15 -2.5 30 -7.5 q21 -9 105 10 q84 20 149 111 q30 70 26 114 q-4 43 -10 51 q0 0 -4.5 14.5 q-4.5 14.5 -5.5 33.5 q1 21 15 32 q14 12 36 12 q18 1 31.5 -6.5 q13.5 -7.5 18.5 -34.5 q53 -202 -37 -304 q-89 -103 -202 -124 Z"></path></symbol><symbol id="zhihu" viewBox="0 -212 1024 1024"><path d="M600 403.74 q-2 -40 -13 -61 q-10 -21 -12 -21 l-191 0 q4 -74 6.5 -148.5 q2.5 -74.5 4.5 -110.5 l181 0 q0 -5 -3.5 -38.5 q-3.5 -33.5 -18.5 -39.5 l-166 0 l-153 0 q1 -4 13.5 -55 q12.5 -51 32.5 -89 q-6 -4 -53 13.5 q-47 17.5 -75 108.5 q-26 95 -54 151 q-27 56 -33 67 q-2 10 14 7 q16 -1 28 -7 q14 -3 46 -28 q33 -25 50 -90 l99 0 q2 50 3 139 q2 89 1 120 l-203 0 q-22 18 -30.5 48 q-8.5 30 -8.5 34 l233 0 q-8 49 -21 102 q-12 53 -30 88 q-25 50 -60 106 q-35 56 -133 136 q-4 2 -3 8 q2 6 49 3 q52 -3 98 -26 q46 -23 80 -88 q19 -35 36 -78 q17 -43 32 -88 l191 220 q2 -1 10 -38 q8 -36 -4 -86 l-142 -159 l-47 35 q10 -35 17 -68 q6 -34 9 -65 l0 -2 l220 0 ZM645 731.74 l80 0 l33 93 l139 -93 l176 0 l0 -763 l-428 0 l0 763 ZM899 649.74 l-113 75 l-28 -75 l-28 0 l0 -595 l260 0 l0 595 l-91 0 Z"></path></symbol><symbol id="gihub" viewBox="0 -212 1024 1024"><path d="M1053 310 q0 -140 -69.5 -259 q-69.5 -119 -188.5 -188 q-119 -69 -259 -69 q-140 0 -259 69 q-119 69 -188.5 188 q-69.5 119 -69.5 259 q0 169 99 304 q99 135 254 187 q19 3 27 -5 q8 -8 8 -20 q0 -2 0 -36 q0 -34 0 -60 l-15 2 q-15 4 -37.5 3 q-22.5 -1 -46.5 -5 q-24 -4 -45.5 -20 q-21.5 -16 -29.5 -42 l-7 -15 q-7 -15 -21 -34 q-14 -19 -30 -26 l-4 -4 q-5 -3 -9 -7.5 q-4 -4.5 -6 -9.5 q-2 -5 3.5 -8 q5.5 -3 19.5 -3 l14 3 q13 2 33 15.5 q20 13.5 33 34.5 q15 28 37 42.5 q22 14.5 44.5 14.5 q22.5 0 38.5 -3 q16 -3 30 -10 q6 -45 33 -70 q-39 -3 -69.5 -11.5 q-30.5 -8.5 -63 -26.5 q-32.5 -18 -54.5 -45 q-22 -27 -35.5 -71 q-13.5 -44 -13.5 -100 q0 -83 53 -139 q-25 -61 5 -138 q20 -6 58 9.5 q38 15.5 56 26 q18 10.5 28 18.5 q63 -17 130 -17 q67 0 129 17 l25 -16 q27 -17 62.5 -30.5 q35.5 -13.5 54.5 -7.5 q30 77 6 138 q53 56 53 139 q0 56 -13.5 100.5 q-13.5 44.5 -36 71 q-22.5 26.5 -55 44.5 q-32.5 18 -63 26.5 q-30.5 8.5 -69.5 11.5 q35 31 35 96 l0 142 q0 12 8.5 20 q8.5 8 27.5 5 q155 -52 254 -187 q99 -135 99 -304 Z"></path></symbol><symbol id="github2" viewBox="0 -212 1024 1024"><path d="M86 486.05 q3 -9 35 -7 q34 3 89 63 q6 5 19 23 q13 17 24 28 q48 36 96 25 q49 -10 60 -19 q7 -56 43 -89 q-33 -1 -64 -9 q-31 -4 -60 -18 q-31 -9 -58 -29 q-26 -14 -48 -42 q-25 -25 -40 -57 q-15 -30 -24 -76 q-9 -43 -9 -98 q0 -102 68 -179 q-5 -5 -12 -54 q-8 -47 20 -124 q41 -1 86 16.5 q45 17.5 97 50.5 q76 -18 168 -22 q84 3 166 22 q20 -13 71.5 -39 q51.5 -26 111.5 -26 q25 68 19 118 q-6 50 -12 59 q68 68 68 172 l0 6 q1 8 1 16 q0 40 -10 83 q-8 39 -25 76 q-15 30 -38 56 q-23 23 -48 41 q-28 16 -58 28 q-29 9 -60 18 q-31 4 -63 10 q44 37 45 122 l0 55 l0 61 q-1 32 -1 49 q0 15 1 16 q-76 20 -156 20 l-16 0 q-80 0 -157 -20 q-1 -1 -1 -113 q-22 8 -93.5 4.5 q-71.5 -3.5 -121.5 -73.5 q-13 -25 -33 -66.5 q-20 -41.5 -67 -67.5 q-6 12 -15 6 q-8 -6 2 -16 Z"></path></symbol></defs></svg>